<svg xmlns="http://www.w3.org/2000/svg" width="248" height="178" viewBox="132 167 248 178" role="img" aria-label="globallink_520">
  <defs>
    <filter id="shadow" x="-20%" y="-20%" width="140%" height="140%">
      <feDropShadow dx="0" dy="5" stdDeviation="5" flood-color="#000" flood-opacity="0.2"/>
    </filter>
  </defs>
  <g id="product" filter="url(#shadow)">
    <rect x="146" y="181" width="220" height="150" rx="14" fill="#0096D6"/>
    <rect x="170" y="207" width="150" height="12" rx="6" fill="#F0F4F5" opacity="0.82"/>
    <rect x="170" y="237" width="105" height="10" rx="5" fill="#F0F4F5" opacity="0.72"/>
    <rect x="166" y="289" width="180" height="24" rx="6" fill="#1D2428"/>
    <rect x="180" y="293" width="38" height="26" rx="3" fill="#0B0E10" stroke="#3B4348" stroke-width="2"/><rect x="187" y="298" width="24" height="15" rx="1" fill="#283138"/><line x1="191" y1="313" x2="191" y2="317" stroke="#6A7478"/><line x1="199" y1="313" x2="199" y2="317" stroke="#6A7478"/><line x1="207" y1="313" x2="207" y2="317" stroke="#6A7478"/><rect x="228" y="293" width="38" height="26" rx="3" fill="#0B0E10" stroke="#3B4348" stroke-width="2"/><rect x="235" y="298" width="24" height="15" rx="1" fill="#283138"/><line x1="239" y1="313" x2="239" y2="317" stroke="#6A7478"/><line x1="247" y1="313" x2="247" y2="317" stroke="#6A7478"/><line x1="255" y1="313" x2="255" y2="317" stroke="#6A7478"/>
  </g>
</svg>