<svg xmlns="http://www.w3.org/2000/svg" width="338" height="208" viewBox="87 152 338 208" role="img" aria-label="lynx_distributor">
  <defs>
    <filter id="shadow" x="-20%" y="-20%" width="140%" height="140%">
      <feDropShadow dx="0" dy="5" stdDeviation="5" flood-color="#000" flood-opacity="0.2"/>
    </filter>
  </defs>
  <g id="product" filter="url(#shadow)">
    <rect x="101" y="166" width="310" height="180" rx="14" fill="#0096D6"/>
    <rect x="117" y="188" width="278" height="38" rx="8" fill="#1D2428"/>
    <rect x="137" y="200" width="190" height="9" rx="4" fill="#F0F4F5" opacity="0.8"/>
    <rect x="137" y="228" width="238" height="12" fill="#007DB7"/>
    <rect x="157" y="246" width="30" height="56" rx="6" fill="#111417"/><rect x="161" y="262" width="22" height="16" rx="3" fill="#007DB7" opacity="0.9"/><rect x="209" y="246" width="30" height="56" rx="6" fill="#111417"/><rect x="213" y="262" width="22" height="16" rx="3" fill="#007DB7" opacity="0.9"/><rect x="261" y="246" width="30" height="56" rx="6" fill="#111417"/><rect x="265" y="262" width="22" height="16" rx="3" fill="#007DB7" opacity="0.9"/><rect x="313" y="246" width="30" height="56" rx="6" fill="#111417"/><rect x="317" y="262" width="22" height="16" rx="3" fill="#007DB7" opacity="0.9"/>
    <circle cx="139" cy="316" r="13" fill="#B89A4A"/><circle cx="373" cy="316" r="13" fill="#B89A4A"/>
    
  </g>
</svg>