<svg xmlns="http://www.w3.org/2000/svg" width="322" height="458" viewBox="95 27 322 458" role="img" aria-label="multiplus_ii_48v_5000_120v">
  <defs>
    <filter id="shadow" x="-20%" y="-20%" width="140%" height="140%">
      <feDropShadow dx="0" dy="5" stdDeviation="5" flood-color="#000" flood-opacity="0.2"/>
    </filter>
  </defs>
  <g id="product" filter="url(#shadow)">
    <rect x="109" y="71" width="24" height="45" rx="6" fill="#1D2428"/><rect x="379" y="71" width="24" height="45" rx="6" fill="#1D2428"/><rect x="109" y="396" width="24" height="45" rx="6" fill="#1D2428"/><rect x="379" y="396" width="24" height="45" rx="6" fill="#1D2428"/>
    <rect x="121" y="41" width="270" height="430" rx="14" fill="#0096D6"/>
    <rect x="121" y="385" width="270" height="72" fill="#1D2428"/>
    <rect x="155" y="95" width="160" height="9" rx="4" fill="#F0F4F5" opacity="0.82"/>
    <rect x="155" y="173" width="200" height="16" fill="#F28C28"/>
    <rect x="157" y="219" width="88" height="56" rx="6" fill="#101719"/>
    <circle cx="169" cy="237" r="5" fill="#B7BBC0"/><circle cx="204" cy="237" r="5" fill="#44C766"/>
    <circle cx="169" cy="255" r="5" fill="#B7BBC0"/><circle cx="204" cy="255" r="5" fill="#B7BBC0"/>
    <circle cx="169" cy="273" r="5" fill="#B7BBC0"/><circle cx="204" cy="273" r="5" fill="#B7BBC0"/>
    <rect x="256" y="221" width="90" height="6" rx="3.0" fill="#F0F4F5" opacity="0.82"/>
<rect x="256" y="237" width="110" height="6" rx="3.0" fill="#F0F4F5" opacity="0.82"/>
<rect x="256" y="253" width="80" height="6" rx="3.0" fill="#F0F4F5" opacity="0.82"/>
<rect x="256" y="269" width="100" height="6" rx="3.0" fill="#F0F4F5" opacity="0.82"/>
    <rect x="319" y="219" width="44" height="44" rx="4" fill="none" stroke="#F0F4F5" stroke-width="3" opacity="0.75"/>
    <line x1="341" y1="219" x2="341" y2="263" stroke="#F0F4F5" stroke-width="2" opacity="0.65"/>
    <rect x="143" y="433" width="226" height="16" rx="6" fill="#0E1012"/>
    <rect x="143" y="429" width="5" height="26" rx="2" fill="#2E363A"/><rect x="157" y="429" width="5" height="26" rx="2" fill="#2E363A"/><rect x="171" y="429" width="5" height="26" rx="2" fill="#2E363A"/><rect x="185" y="429" width="5" height="26" rx="2" fill="#2E363A"/><rect x="199" y="429" width="5" height="26" rx="2" fill="#2E363A"/><rect x="213" y="429" width="5" height="26" rx="2" fill="#2E363A"/><rect x="227" y="429" width="5" height="26" rx="2" fill="#2E363A"/><rect x="241" y="429" width="5" height="26" rx="2" fill="#2E363A"/><rect x="255" y="429" width="5" height="26" rx="2" fill="#2E363A"/><rect x="269" y="429" width="5" height="26" rx="2" fill="#2E363A"/><rect x="283" y="429" width="5" height="26" rx="2" fill="#2E363A"/><rect x="297" y="429" width="5" height="26" rx="2" fill="#2E363A"/><rect x="311" y="429" width="5" height="26" rx="2" fill="#2E363A"/><rect x="325" y="429" width="5" height="26" rx="2" fill="#2E363A"/><rect x="339" y="429" width="5" height="26" rx="2" fill="#2E363A"/><rect x="353" y="429" width="5" height="26" rx="2" fill="#2E363A"/>
  </g>
</svg>