<svg xmlns="http://www.w3.org/2000/svg" width="370" height="348" viewBox="71 82 370 348" role="img" aria-label="orion_tr_smart_medium_isolated">
  <defs>
    <filter id="shadow" x="-20%" y="-20%" width="140%" height="140%">
      <feDropShadow dx="0" dy="5" stdDeviation="5" flood-color="#000" flood-opacity="0.2"/>
    </filter>
  </defs>
  <g id="product" filter="url(#shadow)">
    <rect x="121" y="96" width="270" height="320" rx="24" fill="#0096D6"/>
    <path d="M121 120 Q121 96 145 96 H199 V416 H145 Q121 416 121 392 Z" fill="#007DB7" opacity="0.55"/>
    <rect x="85" y="132" width="36" height="28" rx="4" fill="#1D2428"/>
    <rect x="391" y="160" width="36" height="28" rx="4" fill="#1D2428"/>
    <circle cx="163" cy="160" r="14" fill="#CDEFFF"/>
    <circle cx="163" cy="196" r="12" fill="none" stroke="#F0F4F5" stroke-width="4"/>
    <line x1="163" y1="184" x2="163" y2="208" stroke="#F0F4F5" stroke-width="4"/>
    <rect x="216" y="162" width="115" height="12" rx="6.0" fill="#F0F4F5" opacity="0.82"/>
<rect x="216" y="194" width="160" height="12" rx="6.0" fill="#F0F4F5" opacity="0.82"/>
<rect x="216" y="226" width="135" height="12" rx="6.0" fill="#F0F4F5" opacity="0.82"/>
    <rect x="216" y="272" width="145" height="18" fill="#F28C28"/>
    <rect x="223" y="316" width="105" height="6" rx="3.0" fill="#F0F4F5" opacity="0.82"/>
<rect x="223" y="334" width="120" height="6" rx="3.0" fill="#F0F4F5" opacity="0.82"/>
<rect x="223" y="352" width="90" height="6" rx="3.0" fill="#F0F4F5" opacity="0.82"/>
    <rect x="165" y="330" width="182" height="55" rx="13" fill="#007DB7"/>
    <rect x="189" y="342" width="134" height="32" rx="9" fill="#1D2428"/>
    <circle cx="211" cy="358" r="10" fill="#222" stroke="#050607" stroke-width="2"/><line x1="205" y1="358" x2="217" y2="358" stroke="#4B4B4B" stroke-width="3"/>
<circle cx="251" cy="358" r="10" fill="#222" stroke="#050607" stroke-width="2"/><line x1="245" y1="358" x2="257" y2="358" stroke="#4B4B4B" stroke-width="3"/>
<circle cx="261" cy="358" r="10" fill="#222" stroke="#050607" stroke-width="2"/><line x1="255" y1="358" x2="267" y2="358" stroke="#4B4B4B" stroke-width="3"/>
<circle cx="301" cy="358" r="10" fill="#222" stroke="#050607" stroke-width="2"/><line x1="295" y1="358" x2="307" y2="358" stroke="#4B4B4B" stroke-width="3"/>
    <rect x="181" y="388" width="48" height="18" rx="4" fill="#60B96E"/><rect x="256" y="388" width="80" height="18" rx="4" fill="#ECE6D5"/>
  </g>
</svg>