<svg xmlns="http://www.w3.org/2000/svg" width="292" height="288" viewBox="110 111 292 288" role="img" aria-label="orion_xs_1400">
  <defs>
    <filter id="shadow" x="-20%" y="-20%" width="140%" height="140%">
      <feDropShadow dx="0" dy="5" stdDeviation="5" flood-color="#000" flood-opacity="0.2"/>
    </filter>
  </defs>
  <g id="product" filter="url(#shadow)">
    <rect x="124" y="125" width="264" height="260" rx="20" fill="#0096D6"/>
    <rect x="144" y="150" width="224" height="62" rx="8" fill="#1D2428"/>
    <circle cx="172" cy="181" r="10" fill="#7EDCFF"/>
    <rect x="206" y="168" width="96" height="8" rx="4.0" fill="#F0F4F5" opacity="0.82"/>
<rect x="206" y="188" width="122" height="8" rx="4.0" fill="#F0F4F5" opacity="0.82"/>
    <rect x="156" y="240" width="200" height="18" fill="#F28C28"/>
    <rect x="170" y="280" width="145" height="7" rx="3.5" fill="#F0F4F5" opacity="0.82"/>
<rect x="170" y="298" width="118" height="7" rx="3.5" fill="#F0F4F5" opacity="0.82"/>
<rect x="170" y="316" width="160" height="7" rx="3.5" fill="#F0F4F5" opacity="0.82"/>
    <rect x="162" y="325" width="188" height="38" rx="10" fill="#1D2428"/>
    <circle cx="190" cy="344" r="10" fill="#222" stroke="#050607" stroke-width="2"/><line x1="184" y1="344" x2="196" y2="344" stroke="#4B4B4B" stroke-width="3"/>
<circle cx="234" cy="344" r="10" fill="#222" stroke="#050607" stroke-width="2"/><line x1="228" y1="344" x2="240" y2="344" stroke="#4B4B4B" stroke-width="3"/>
<circle cx="278" cy="344" r="10" fill="#222" stroke="#050607" stroke-width="2"/><line x1="272" y1="344" x2="284" y2="344" stroke="#4B4B4B" stroke-width="3"/>
<circle cx="322" cy="344" r="10" fill="#222" stroke="#050607" stroke-width="2"/><line x1="316" y1="344" x2="328" y2="344" stroke="#4B4B4B" stroke-width="3"/>
  </g>
</svg>