<svg xmlns="http://www.w3.org/2000/svg" width="322" height="418" viewBox="95 47 322 418" role="img" aria-label="quattro_5000_120v">
  <defs>
    <filter id="shadow" x="-20%" y="-20%" width="140%" height="140%">
      <feDropShadow dx="0" dy="5" stdDeviation="5" flood-color="#000" flood-opacity="0.2"/>
    </filter>
  </defs>
  <g id="product" filter="url(#shadow)">
    <rect x="109" y="91" width="24" height="45" rx="6" fill="#1D2428"/><rect x="379" y="91" width="24" height="45" rx="6" fill="#1D2428"/><rect x="109" y="376" width="24" height="45" rx="6" fill="#1D2428"/><rect x="379" y="376" width="24" height="45" rx="6" fill="#1D2428"/>
    <rect x="121" y="61" width="270" height="390" rx="14" fill="#0096D6"/>
    <rect x="121" y="365" width="270" height="72" fill="#1D2428"/>
    <rect x="155" y="115" width="160" height="9" rx="4" fill="#F0F4F5" opacity="0.82"/>
    <rect x="155" y="193" width="200" height="16" fill="#F28C28"/>
    <rect x="157" y="239" width="88" height="56" rx="6" fill="#101719"/>
    <circle cx="169" cy="257" r="5" fill="#B7BBC0"/><circle cx="204" cy="257" r="5" fill="#44C766"/>
    <circle cx="169" cy="275" r="5" fill="#B7BBC0"/><circle cx="204" cy="275" r="5" fill="#B7BBC0"/>
    <circle cx="169" cy="293" r="5" fill="#B7BBC0"/><circle cx="204" cy="293" r="5" fill="#B7BBC0"/>
    <rect x="256" y="241" width="90" height="6" rx="3.0" fill="#F0F4F5" opacity="0.82"/>
<rect x="256" y="257" width="110" height="6" rx="3.0" fill="#F0F4F5" opacity="0.82"/>
<rect x="256" y="273" width="80" height="6" rx="3.0" fill="#F0F4F5" opacity="0.82"/>
<rect x="256" y="289" width="100" height="6" rx="3.0" fill="#F0F4F5" opacity="0.82"/>
    <rect x="319" y="239" width="44" height="44" rx="4" fill="none" stroke="#F0F4F5" stroke-width="3" opacity="0.75"/>
    <line x1="341" y1="239" x2="341" y2="283" stroke="#F0F4F5" stroke-width="2" opacity="0.65"/>
    <rect x="143" y="413" width="226" height="16" rx="6" fill="#0E1012"/>
    <rect x="143" y="409" width="5" height="26" rx="2" fill="#2E363A"/><rect x="157" y="409" width="5" height="26" rx="2" fill="#2E363A"/><rect x="171" y="409" width="5" height="26" rx="2" fill="#2E363A"/><rect x="185" y="409" width="5" height="26" rx="2" fill="#2E363A"/><rect x="199" y="409" width="5" height="26" rx="2" fill="#2E363A"/><rect x="213" y="409" width="5" height="26" rx="2" fill="#2E363A"/><rect x="227" y="409" width="5" height="26" rx="2" fill="#2E363A"/><rect x="241" y="409" width="5" height="26" rx="2" fill="#2E363A"/><rect x="255" y="409" width="5" height="26" rx="2" fill="#2E363A"/><rect x="269" y="409" width="5" height="26" rx="2" fill="#2E363A"/><rect x="283" y="409" width="5" height="26" rx="2" fill="#2E363A"/><rect x="297" y="409" width="5" height="26" rx="2" fill="#2E363A"/><rect x="311" y="409" width="5" height="26" rx="2" fill="#2E363A"/><rect x="325" y="409" width="5" height="26" rx="2" fill="#2E363A"/><rect x="339" y="409" width="5" height="26" rx="2" fill="#2E363A"/><rect x="353" y="409" width="5" height="26" rx="2" fill="#2E363A"/>
  </g>
</svg>