<svg xmlns="http://www.w3.org/2000/svg" width="298" height="388" viewBox="107 56 298 388" role="img" aria-label="smartsolar_mppt_large_ve_can_mc4">
  <defs>
    <filter id="shadow" x="-20%" y="-20%" width="140%" height="140%">
      <feDropShadow dx="0" dy="5" stdDeviation="5" flood-color="#000" flood-opacity="0.2"/>
    </filter>
  </defs>
  <g id="product" filter="url(#shadow)">
    <rect x="121" y="70" width="270" height="360" rx="20" fill="#0096D6"/>
    <path d="M121 92 Q121 70 143 70 H179 V430 H143 Q121 430 121 408 Z" fill="#007DB7" opacity="0.48"/>
    <path d="M373 78 Q391 78 391 96 V405 Q391 423 373 423 Z" fill="#007DB7" opacity="0.35"/>
    <rect x="159" y="128" width="194" height="14" rx="7" fill="#F0F4F5" opacity="0.9"/>
    <rect x="159" y="166" width="214" height="18" rx="8" fill="#F0F4F5" opacity="0.88"/>
    <rect x="159" y="215" width="215" height="18" fill="#F28C28"/>
    <rect x="165" y="255" width="165" height="6" rx="3.0" fill="#F0F4F5" opacity="0.82"/>
<rect x="165" y="273" width="190" height="6" rx="3.0" fill="#F0F4F5" opacity="0.82"/>
<rect x="165" y="291" width="150" height="6" rx="3.0" fill="#F0F4F5" opacity="0.82"/>
    <rect x="139" y="340" width="234" height="72" rx="12" fill="#007DB7"/>
    <rect x="157" y="358" width="198" height="48" rx="10" fill="#1D2428"/>
    <rect x="212.0" y="355" width="28" height="54" rx="10" fill="#111417"/><circle cx="226.0" cy="382" r="7" fill="#343C40"/><rect x="218.0" y="344" width="16" height="12" rx="3" fill="#242A2D"/><rect x="272.0" y="355" width="28" height="54" rx="10" fill="#111417"/><circle cx="286.0" cy="382" r="7" fill="#343C40"/><rect x="278.0" y="344" width="16" height="12" rx="3" fill="#242A2D"/>
    
    <rect x="299" y="394" width="38" height="26" rx="3" fill="#0B0E10" stroke="#3B4348" stroke-width="2"/><rect x="306" y="399" width="24" height="15" rx="1" fill="#283138"/><line x1="310" y1="414" x2="310" y2="418" stroke="#6A7478"/><line x1="318" y1="414" x2="318" y2="418" stroke="#6A7478"/><line x1="326" y1="414" x2="326" y2="418" stroke="#6A7478"/><rect x="343" y="394" width="38" height="26" rx="3" fill="#0B0E10" stroke="#3B4348" stroke-width="2"/><rect x="350" y="399" width="24" height="15" rx="1" fill="#283138"/><line x1="354" y1="414" x2="354" y2="418" stroke="#6A7478"/><line x1="362" y1="414" x2="362" y2="418" stroke="#6A7478"/><line x1="370" y1="414" x2="370" y2="418" stroke="#6A7478"/>
  </g>
</svg>