<svg xmlns="http://www.w3.org/2000/svg" width="278" height="422" viewBox="117 52 278 422" role="img" aria-label="smartsolar_mppt_rs_450_100_mc4">
  <defs>
    <filter id="shadow" x="-20%" y="-20%" width="140%" height="140%">
      <feDropShadow dx="0" dy="5" stdDeviation="5" flood-color="#000" flood-opacity="0.2"/>
    </filter>
  </defs>
  <g id="product" filter="url(#shadow)">
    <rect x="131" y="66" width="250" height="380" rx="18" fill="#0096D6"/>
    <rect x="147" y="84" width="218" height="70" rx="8" fill="#1D2428" opacity="0.95"/>
    <circle cx="176" cy="118" r="12" fill="#78D7FF" opacity="0.9"/>
    <rect x="211" y="99" width="110" height="10" rx="5" fill="#F0F4F5" opacity="0.8"/>
    <rect x="211" y="121" width="135" height="10" rx="5" fill="#F0F4F5" opacity="0.8"/>
    <rect x="159" y="186" width="194" height="18" fill="#F28C28"/>
    <rect x="165" y="224" width="150" height="7" rx="3.5" fill="#F0F4F5" opacity="0.82"/>
<rect x="165" y="242" width="120" height="7" rx="3.5" fill="#F0F4F5" opacity="0.82"/>
<rect x="165" y="260" width="176" height="7" rx="3.5" fill="#F0F4F5" opacity="0.82"/>
<rect x="165" y="278" width="135" height="7" rx="3.5" fill="#F0F4F5" opacity="0.82"/>
    <rect x="153" y="351" width="206" height="70" rx="10" fill="#1D2428"/>
    <rect x="187" y="359" width="28" height="54" rx="10" fill="#111417"/><circle cx="201" cy="386" r="7" fill="#343C40"/><rect x="193" y="348" width="16" height="12" rx="3" fill="#242A2D"/>
    <rect x="227" y="359" width="28" height="54" rx="10" fill="#111417"/><circle cx="241" cy="386" r="7" fill="#343C40"/><rect x="233" y="348" width="16" height="12" rx="3" fill="#242A2D"/>
    <rect x="174" y="434" width="38" height="26" rx="3" fill="#0B0E10" stroke="#3B4348" stroke-width="2"/><rect x="181" y="439" width="24" height="15" rx="1" fill="#283138"/><line x1="185" y1="454" x2="185" y2="458" stroke="#6A7478"/><line x1="193" y1="454" x2="193" y2="458" stroke="#6A7478"/><line x1="201" y1="454" x2="201" y2="458" stroke="#6A7478"/><rect x="223" y="434" width="38" height="26" rx="3" fill="#0B0E10" stroke="#3B4348" stroke-width="2"/><rect x="230" y="439" width="24" height="15" rx="1" fill="#283138"/><line x1="234" y1="454" x2="234" y2="458" stroke="#6A7478"/><line x1="242" y1="454" x2="242" y2="458" stroke="#6A7478"/><line x1="250" y1="454" x2="250" y2="458" stroke="#6A7478"/>
  </g>
</svg>