<svg xmlns="http://www.w3.org/2000/svg" width="512" height="242" viewBox="0 120 512 242" role="img" aria-label="smartshunt_large">
  <defs>
    <filter id="shadow" x="-20%" y="-20%" width="140%" height="140%">
      <feDropShadow dx="0" dy="5" stdDeviation="5" flood-color="#000" flood-opacity="0.2"/>
    </filter>
  </defs>
  <g id="product" filter="url(#shadow)">
    <rect x="6" y="292" width="90" height="22" rx="5" fill="#111417"/><rect x="416" y="292" width="90" height="22" rx="5" fill="#111417"/>
    <rect x="104" y="134" width="72" height="72" rx="9" fill="#B89A4A"/><rect x="336" y="134" width="72" height="72" rx="9" fill="#B89A4A"/>
    <rect x="76" y="196" width="360" height="152" rx="18" fill="#111417"/>
    <rect x="92" y="210" width="328" height="124" rx="10" fill="#0096D6"/>
    <path d="M92 210 H156 V334 H92 Z" fill="#007DB7" opacity="0.45"/>
    <rect x="126" y="232" width="120" height="7" rx="3.5" fill="#F0F4F5" opacity="0.82"/>
<rect x="126" y="250" width="80" height="7" rx="3.5" fill="#F0F4F5" opacity="0.82"/>
<rect x="126" y="268" width="110" height="7" rx="3.5" fill="#F0F4F5" opacity="0.82"/>
    <rect x="221" y="266" width="150" height="16" fill="#F28C28"/>
    <rect x="128" y="294" width="78" height="34" rx="7" fill="#111417"/><rect x="146" y="305" width="42" height="13" rx="2" fill="#E9E6D9"/>
    <circle cx="321" cy="242" r="9" fill="#242A2E"/><circle cx="354" cy="242" r="12" fill="#59D3FF" opacity="0.9"/>
    <rect x="342" y="294" width="42" height="34" rx="5" fill="#60B96E" stroke="#2E6F3A" stroke-width="2"/>
    
  </g>
</svg>