<svg xmlns="http://www.w3.org/2000/svg" width="298" height="388" viewBox="107 56 298 388" role="img" aria-label="smartsolar_mppt_large_tr">
  <defs>
    <filter id="shadow" x="-20%" y="-20%" width="140%" height="140%">
      <feDropShadow dx="0" dy="5" stdDeviation="5" flood-color="#000" flood-opacity="0.2"/>
    </filter>
  </defs>
  <g id="product" filter="url(#shadow)">
    <rect x="121" y="70" width="270" height="360" rx="20" fill="#0096D6"/>
    <path d="M121 92 Q121 70 143 70 H179 V430 H143 Q121 430 121 408 Z" fill="#007DB7" opacity="0.48"/>
    <path d="M373 78 Q391 78 391 96 V405 Q391 423 373 423 Z" fill="#007DB7" opacity="0.35"/>
    <rect x="159" y="128" width="194" height="14" rx="7" fill="#F0F4F5" opacity="0.9"/>
    <rect x="159" y="166" width="214" height="18" rx="8" fill="#F0F4F5" opacity="0.88"/>
    <rect x="159" y="215" width="215" height="18" fill="#F28C28"/>
    <rect x="165" y="255" width="165" height="6" rx="3.0" fill="#F0F4F5" opacity="0.82"/>
<rect x="165" y="273" width="190" height="6" rx="3.0" fill="#F0F4F5" opacity="0.82"/>
<rect x="165" y="291" width="150" height="6" rx="3.0" fill="#F0F4F5" opacity="0.82"/>
    <rect x="139" y="340" width="234" height="72" rx="12" fill="#007DB7"/>
    <rect x="157" y="358" width="198" height="48" rx="10" fill="#1D2428"/>
    <circle cx="149.0" cy="381" r="10" fill="#222" stroke="#050607" stroke-width="2"/><line x1="143.0" y1="381" x2="155.0" y2="381" stroke="#4B4B4B" stroke-width="3"/>
<circle cx="220.33333333333331" cy="381" r="10" fill="#222" stroke="#050607" stroke-width="2"/><line x1="214.33333333333331" y1="381" x2="226.33333333333331" y2="381" stroke="#4B4B4B" stroke-width="3"/>
<circle cx="291.66666666666663" cy="381" r="10" fill="#222" stroke="#050607" stroke-width="2"/><line x1="285.66666666666663" y1="381" x2="297.66666666666663" y2="381" stroke="#4B4B4B" stroke-width="3"/>
<circle cx="363.0" cy="381" r="10" fill="#222" stroke="#050607" stroke-width="2"/><line x1="357.0" y1="381" x2="369.0" y2="381" stroke="#4B4B4B" stroke-width="3"/>
    <text x="202.0" y="412" font-size="16" fill="#F0F4F5" font-family="Arial">+</text><text x="302.0" y="412" font-size="18" fill="#F0F4F5" font-family="Arial">-</text>
    <rect x="149" y="395" width="42" height="18" rx="5" fill="#1D2428"/><circle cx="163" cy="404" r="5" fill="#050607"/><circle cx="178" cy="404" r="5" fill="#050607"/>
  </g>
</svg>