<svg xmlns="http://www.w3.org/2000/svg" width="218" height="328" viewBox="147 78 218 328" role="img" aria-label="smartsolar_mppt_small_screw_terminal">
  <defs>
    <filter id="shadow" x="-20%" y="-20%" width="140%" height="140%">
      <feDropShadow dx="0" dy="5" stdDeviation="5" flood-color="#000" flood-opacity="0.2"/>
    </filter>
  </defs>
  <g id="product" filter="url(#shadow)">
    <rect x="161" y="92" width="190" height="300" rx="20" fill="#0096D6"/>
    <path d="M161 114 Q161 92 183 92 H219 V392 H183 Q161 392 161 370 Z" fill="#007DB7" opacity="0.48"/>
    <path d="M333 100 Q351 100 351 118 V367 Q351 385 333 385 Z" fill="#007DB7" opacity="0.35"/>
    <rect x="199" y="150" width="114" height="14" rx="7" fill="#F0F4F5" opacity="0.9"/>
    <rect x="199" y="188" width="134" height="18" rx="8" fill="#F0F4F5" opacity="0.88"/>
    <rect x="199" y="237" width="135" height="18" fill="#F28C28"/>
    <rect x="205" y="277" width="85" height="6" rx="3.0" fill="#F0F4F5" opacity="0.82"/>
<rect x="205" y="295" width="110" height="6" rx="3.0" fill="#F0F4F5" opacity="0.82"/>
<rect x="205" y="313" width="70" height="6" rx="3.0" fill="#F0F4F5" opacity="0.82"/>
    <rect x="179" y="314" width="154" height="60" rx="12" fill="#007DB7"/>
    <rect x="197" y="332" width="118" height="36" rx="10" fill="#1D2428"/>
    <circle cx="189.0" cy="355" r="10" fill="#222" stroke="#050607" stroke-width="2"/><line x1="183.0" y1="355" x2="195.0" y2="355" stroke="#4B4B4B" stroke-width="3"/>
<circle cx="233.66666666666666" cy="355" r="10" fill="#222" stroke="#050607" stroke-width="2"/><line x1="227.66666666666666" y1="355" x2="239.66666666666666" y2="355" stroke="#4B4B4B" stroke-width="3"/>
<circle cx="278.3333333333333" cy="355" r="10" fill="#222" stroke="#050607" stroke-width="2"/><line x1="272.3333333333333" y1="355" x2="284.3333333333333" y2="355" stroke="#4B4B4B" stroke-width="3"/>
<circle cx="323.0" cy="355" r="10" fill="#222" stroke="#050607" stroke-width="2"/><line x1="317.0" y1="355" x2="329.0" y2="355" stroke="#4B4B4B" stroke-width="3"/>
    <text x="202.0" y="374" font-size="16" fill="#F0F4F5" font-family="Arial">+</text><text x="302.0" y="374" font-size="18" fill="#F0F4F5" font-family="Arial">-</text>
    <rect x="189" y="357" width="42" height="18" rx="5" fill="#1D2428"/><circle cx="203" cy="366" r="5" fill="#050607"/><circle cx="218" cy="366" r="5" fill="#050607"/>
  </g>
</svg>