<svg xmlns="http://www.w3.org/2000/svg" width="494" height="242" viewBox="9 120 494 242" role="img" aria-label="smartshunt_standard">
  <defs>
    <filter id="shadow" x="-20%" y="-20%" width="140%" height="140%">
      <feDropShadow dx="0" dy="5" stdDeviation="5" flood-color="#000" flood-opacity="0.2"/>
    </filter>
  </defs>
  <g id="product" filter="url(#shadow)">
    <rect x="23" y="292" width="90" height="22" rx="5" fill="#111417"/><rect x="399" y="292" width="90" height="22" rx="5" fill="#111417"/>
    <rect x="121" y="134" width="72" height="72" rx="9" fill="#B89A4A"/><rect x="319" y="134" width="72" height="72" rx="9" fill="#B89A4A"/>
    <rect x="93" y="196" width="326" height="152" rx="18" fill="#111417"/>
    <rect x="109" y="210" width="294" height="124" rx="10" fill="#0096D6"/>
    <path d="M109 210 H173 V334 H109 Z" fill="#007DB7" opacity="0.45"/>
    <rect x="143" y="232" width="120" height="7" rx="3.5" fill="#F0F4F5" opacity="0.82"/>
<rect x="143" y="250" width="80" height="7" rx="3.5" fill="#F0F4F5" opacity="0.82"/>
<rect x="143" y="268" width="110" height="7" rx="3.5" fill="#F0F4F5" opacity="0.82"/>
    <rect x="238" y="266" width="116" height="16" fill="#F28C28"/>
    <rect x="145" y="294" width="78" height="34" rx="7" fill="#111417"/><rect x="163" y="305" width="42" height="13" rx="2" fill="#E9E6D9"/>
    <circle cx="304" cy="242" r="9" fill="#242A2E"/><circle cx="337" cy="242" r="12" fill="#59D3FF" opacity="0.9"/>
    <rect x="325" y="294" width="42" height="34" rx="5" fill="#60B96E" stroke="#2E6F3A" stroke-width="2"/>
    
  </g>
</svg>