<svg xmlns="http://www.w3.org/2000/svg" width="1200" height="1200" viewBox="0 0 1200 1200" role="img" aria-label="Discover DLP-GC2-XXV battery simplified product asset">
  <defs>
    <linearGradient id="bodyGray" x1="0" y1="0" x2="1" y2="1">
      <stop offset="0%" stop-color="#9aa0a3"/>
      <stop offset="100%" stop-color="#83898d"/>
    </linearGradient>
    <linearGradient id="topDark" x1="0" y1="0" x2="1" y2="1">
      <stop offset="0%" stop-color="#4b4f5a"/>
      <stop offset="100%" stop-color="#242a33"/>
    </linearGradient>
    <linearGradient id="topEdge" x1="0" y1="0" x2="0" y2="1">
      <stop offset="0%" stop-color="#c7cbce"/>
      <stop offset="100%" stop-color="#a9aeb2"/>
    </linearGradient>
    <linearGradient id="labelWhite" x1="0" y1="0" x2="0" y2="1">
      <stop offset="0%" stop-color="#fbfbfb"/>
      <stop offset="100%" stop-color="#eceff1"/>
    </linearGradient>
    <linearGradient id="steel" x1="0" y1="0" x2="0" y2="1">
      <stop offset="0%" stop-color="#f8f8f8"/>
      <stop offset="100%" stop-color="#b7bcc1"/>
    </linearGradient>
    <filter id="shadow" x="-20%" y="-20%" width="140%" height="140%">
      <feDropShadow dx="0" dy="8" stdDeviation="12" flood-color="#000" flood-opacity="0.18"/>
    </filter>
    <clipPath id="bodyClip">
      <rect x="290" y="302" width="656" height="668" rx="12"/>
    </clipPath>
  </defs>

  <g filter="url(#shadow)">
    <!-- main battery block -->
    <rect x="290" y="302" width="656" height="668" rx="12" fill="url(#bodyGray)" stroke="#73787c" stroke-width="4"/>

    <!-- top dark lid -->
    <path d="M290 302 h656 v120 h-248 v16 h-160 v-16 h-248 z" fill="url(#topDark)"/>
    <rect x="290" y="422" width="656" height="12" fill="url(#topEdge)"/>
    <path d="M560 302 h116 v120 h-116 z" fill="#2a3038" opacity="0.20"/>

    <!-- top details -->
    <path d="M394 306 l22 -44 l22 44 z" fill="#6d7277" stroke="#595e62" stroke-width="2"/>
    <rect x="600" y="325" width="20" height="112" rx="10" fill="#0f1114"/>
    <circle cx="610" cy="380" r="48" fill="#13171c" stroke="#2c3137" stroke-width="4"/>
    <path d="M587 380 q23 -24 46 0 q-8 21 -23 38 q-15 -17 -23 -38z" fill="#0b0d10" opacity="0.35"/>
    <rect x="785" y="276" width="16" height="66" rx="8" fill="url(#steel)" stroke="#7d8287" stroke-width="2"/>
    <rect x="783" y="258" width="20" height="24" rx="10" fill="url(#steel)" stroke="#7d8287" stroke-width="2"/>
    <rect x="850" y="316" width="22" height="16" rx="6" fill="#f3f4f5" stroke="#9da3a8" stroke-width="2"/>
    <rect x="881" y="316" width="18" height="12" rx="4" fill="#21262c"/>

    <!-- body embossed diagonal styling -->
    <g clip-path="url(#bodyClip)" opacity="0.38" stroke="#666c70" stroke-width="4" fill="none">
      <path d="M330 508 h185"/>
      <path d="M332 546 h143"/>
      <path d="M332 584 h114"/>
      <path d="M332 622 h92"/>
      <path d="M332 660 h72"/>
      <path d="M330 860 l170 -170"/>
      <path d="M330 896 l214 -214"/>
      <path d="M330 932 l254 -254"/>
      <path d="M330 968 l292 -292"/>
      <path d="M452 812 l196 -196"/>
      <path d="M490 812 l196 -196"/>
      <path d="M528 812 l196 -196"/>
      <path d="M566 812 l196 -196"/>
      <path d="M604 812 l196 -196"/>
      <path d="M642 812 l196 -196"/>
      <path d="M680 812 l196 -196"/>
      <path d="M770 866 l132 -132"/>
      <path d="M812 866 l90 -90"/>
      <path d="M438 938 l208 -208"/>
      <path d="M476 938 l246 -246"/>
      <path d="M514 938 l286 -286"/>
      <path d="M552 938 l326 -326"/>
      <path d="M590 938 l312 -312"/>
      <path d="M628 938 l274 -274"/>
      <path d="M666 938 l236 -236"/>
      <path d="M704 938 l198 -198"/>
      <path d="M742 938 l160 -160"/>
      <path d="M780 938 l122 -122"/>
    </g>

    <!-- subtle embossed title placeholders (not readable text) -->
    <g opacity="0.22" fill="#656b70">
      <rect x="354" y="454" width="178" height="12" rx="6"/>
      <rect x="354" y="478" width="128" height="12" rx="6"/>
      <rect x="620" y="924" width="244" height="12" rx="6"/>
    </g>

    <!-- main product label -->
    <rect x="510" y="618" width="374" height="206" rx="6" fill="url(#labelWhite)" stroke="#cfd4d8" stroke-width="3"/>
    <rect x="528" y="638" width="164" height="34" rx="4" fill="#101214"/>
    <rect x="712" y="638" width="90" height="18" rx="5" fill="#d8dbde"/>
    <rect x="808" y="636" width="58" height="20" rx="3" fill="#eceff1" stroke="#d9dde0" stroke-width="1"/>

    <!-- label placeholder bars -->
    <g fill="#bcc3ca">
      <rect x="590" y="692" width="104" height="10" rx="5"/>
      <rect x="590" y="711" width="78" height="10" rx="5"/>
      <rect x="590" y="730" width="94" height="10" rx="5"/>
      <rect x="590" y="749" width="86" height="10" rx="5"/>
      <rect x="590" y="768" width="74" height="10" rx="5"/>
    </g>
    <g fill="#9ca4ac">
      <rect x="692" y="692" width="56" height="10" rx="5"/>
      <rect x="692" y="711" width="46" height="10" rx="5"/>
      <rect x="692" y="730" width="52" height="10" rx="5"/>
      <rect x="692" y="749" width="44" height="10" rx="5"/>
      <rect x="692" y="768" width="50" height="10" rx="5"/>
    </g>
    <g fill="#9aa0a6">
      <rect x="764" y="694" width="84" height="8" rx="4"/>
      <rect x="764" y="714" width="84" height="8" rx="4"/>
      <rect x="764" y="734" width="84" height="8" rx="4"/>
      <rect x="764" y="754" width="84" height="8" rx="4"/>
      <rect x="764" y="774" width="84" height="8" rx="4"/>
    </g>

    <!-- green brand band area (no readable text) -->
    <rect x="804" y="660" width="64" height="18" rx="2" fill="#19a24a"/>
    <rect x="804" y="690" width="64" height="6" rx="3" fill="#19a24a"/>

    <!-- qr area and icon row -->
    <rect x="820" y="706" width="42" height="42" rx="2" fill="#ffffff" stroke="#ced4d8" stroke-width="2"/>
    <g fill="#111">
      <rect x="824" y="710" width="8" height="8"/>
      <rect x="850" y="710" width="8" height="8"/>
      <rect x="824" y="736" width="8" height="8"/>
      <rect x="840" y="722" width="4" height="4"/>
      <rect x="844" y="730" width="4" height="4"/>
      <rect x="852" y="740" width="4" height="4"/>
      <rect x="836" y="740" width="4" height="4"/>
      <rect x="856" y="724" width="4" height="4"/>
    </g>
    <rect x="816" y="758" width="50" height="12" rx="2" fill="#111"/>
    <rect x="816" y="776" width="42" height="8" rx="4" fill="#a8afb6"/>

    <!-- lower certification/icon placeholders -->
    <g fill="#17191b">
      <rect x="596" y="786" width="38" height="30" rx="3"/>
      <circle cx="654" cy="799" r="11" fill="none" stroke="#17191b" stroke-width="4"/>
      <path d="M677 790 l18 18 m0-18 l-18 18" stroke="#17191b" stroke-width="4" stroke-linecap="round"/>
      <circle cx="724" cy="799" r="12" fill="none" stroke="#17191b" stroke-width="4"/>
      <circle cx="764" cy="799" r="12" fill="none" stroke="#17191b" stroke-width="4"/>
      <path d="M790 809 l12-20 l12 20 z" fill="none" stroke="#17191b" stroke-width="4" stroke-linejoin="round"/>
    </g>
    <rect x="818" y="798" width="42" height="18" rx="3" fill="#a2a8ae"/>

    <!-- very light floor reflection -->
    <g opacity="0.14">
      <ellipse cx="618" cy="1040" rx="360" ry="42" fill="#cdd1d4"/>
      <rect x="396" y="1008" width="452" height="82" rx="12" fill="url(#labelWhite)"/>
    </g>
  </g>
</svg>