<svg xmlns="http://www.w3.org/2000/svg" width="932" height="350" viewBox="46 344 932 350" role="img" aria-label="dc_breaker">
  <defs>
    <linearGradient id="metal" x1="0" y1="0" x2="0" y2="1">
      <stop offset="0%" stop-color="#f5f5f5"/>
      <stop offset="55%" stop-color="#d8d8d8"/>
      <stop offset="100%" stop-color="#c5c5c5"/>
    </linearGradient>
    <linearGradient id="metalDark" x1="0" y1="0" x2="0" y2="1">
      <stop offset="0%" stop-color="#efefef"/>
      <stop offset="100%" stop-color="#b7b7b7"/>
    </linearGradient>
    <linearGradient id="darkBody" x1="0" y1="0" x2="1" y2="1">
      <stop offset="0%" stop-color="#4a5059"/>
      <stop offset="45%" stop-color="#2f343b"/>
      <stop offset="100%" stop-color="#171b21"/>
    </linearGradient>
    <linearGradient id="darkBody2" x1="0" y1="0" x2="1" y2="1">
      <stop offset="0%" stop-color="#59616c"/>
      <stop offset="100%" stop-color="#1d2229"/>
    </linearGradient>
    <linearGradient id="creamBody" x1="0" y1="0" x2="1" y2="1">
      <stop offset="0%" stop-color="#f0ece2"/>
      <stop offset="100%" stop-color="#d8d1c4"/>
    </linearGradient>
    <linearGradient id="glass" x1="0" y1="0" x2="0" y2="1">
      <stop offset="0%" stop-color="#cfd3d8" stop-opacity="0.75"/>
      <stop offset="100%" stop-color="#666b72" stop-opacity="0.55"/>
    </linearGradient>
    <linearGradient id="redGrad" x1="0" y1="0" x2="1" y2="1">
      <stop offset="0%" stop-color="#ff4b44"/>
      <stop offset="100%" stop-color="#be0f15"/>
    </linearGradient>
    <linearGradient id="redGrad2" x1="0" y1="0" x2="0" y2="1">
      <stop offset="0%" stop-color="#f33924"/>
      <stop offset="100%" stop-color="#b9110d"/>
    </linearGradient>
    <linearGradient id="yellowGrad" x1="0" y1="0" x2="0" y2="1">
      <stop offset="0%" stop-color="#ffd922"/>
      <stop offset="100%" stop-color="#f2bd00"/>
    </linearGradient>
    <filter id="shadow" x="-20%" y="-20%" width="140%" height="140%">
      <feDropShadow dx="0" dy="8" stdDeviation="10" flood-color="#000000" flood-opacity="0.18"/>
    </filter>
  </defs>
  <g filter="url(#shadow)">
    <rect x="60" y="414" width="216" height="180" rx="22" fill="url(#metal)" stroke="#9f9f9f" stroke-width="5"/>
    <rect x="748" y="414" width="216" height="180" rx="22" fill="url(#metal)" stroke="#9f9f9f" stroke-width="5"/>
    <circle cx="126" cy="506" r="48" fill="none" stroke="#a1a1a1" stroke-width="6"/>
    <circle cx="898" cy="506" r="48" fill="none" stroke="#a1a1a1" stroke-width="6"/>
    <g>
      <rect x="254" y="424" width="154" height="160" rx="22" fill="#555b64" stroke="#31363d" stroke-width="5"/>
      <circle cx="330" cy="504" r="62" fill="#f1f1f1" stroke="#a7a7a7" stroke-width="6"/>
      <polygon points="292,454 368,454 406,504 368,554 292,554 254,504" fill="#dedede" stroke="#a0a0a0" stroke-width="4"/>
      <circle cx="330" cy="504" r="36" fill="#efefef" stroke="#aeaeae" stroke-width="5"/>
    </g>
    <g>
      <rect x="616" y="424" width="154" height="160" rx="22" fill="#555b64" stroke="#31363d" stroke-width="5"/>
      <circle cx="694" cy="504" r="62" fill="#f1f1f1" stroke="#a7a7a7" stroke-width="6"/>
      <polygon points="656,454 732,454 770,504 732,554 656,554 618,504" fill="#dedede" stroke="#a0a0a0" stroke-width="4"/>
      <circle cx="694" cy="504" r="36" fill="#efefef" stroke="#aeaeae" stroke-width="5"/>
    </g>
    <path d="M342,358 h340 l24,24 v260 l-24,24 h-48 l-14,14 h-216 l-14,-14 h-48 l-24,-24 v-260z" fill="url(#darkBody)" stroke="#191d22" stroke-width="6"/>
    <circle cx="394" cy="390" r="22" fill="#13181d" stroke="#4f545c" stroke-width="6"/><circle cx="630" cy="390" r="22" fill="#13181d" stroke="#4f545c" stroke-width="6"/><circle cx="394" cy="634" r="22" fill="#13181d" stroke="#4f545c" stroke-width="6"/><circle cx="630" cy="634" r="22" fill="#13181d" stroke="#4f545c" stroke-width="6"/>
    <rect x="442" y="470" width="174" height="98" rx="22" fill="#23272d" stroke="#111418" stroke-width="5"/>
    <rect x="472" y="494" width="136" height="44" rx="14" fill="url(#redGrad)" stroke="#9a1115" stroke-width="4"/>
    <rect x="640" y="494" width="52" height="44" rx="10" fill="url(#redGrad)" stroke="#9a1115" stroke-width="4"/>
    </g>
</svg>