<svg xmlns="http://www.w3.org/2000/svg" width="808" height="224" viewBox="108 394 808 224" role="img" aria-label="class_t_fuse">
  <defs>
    <linearGradient id="metal" x1="0" y1="0" x2="0" y2="1">
      <stop offset="0%" stop-color="#f5f5f5"/>
      <stop offset="55%" stop-color="#d8d8d8"/>
      <stop offset="100%" stop-color="#c5c5c5"/>
    </linearGradient>
    <linearGradient id="metalDark" x1="0" y1="0" x2="0" y2="1">
      <stop offset="0%" stop-color="#efefef"/>
      <stop offset="100%" stop-color="#b7b7b7"/>
    </linearGradient>
    <linearGradient id="darkBody" x1="0" y1="0" x2="1" y2="1">
      <stop offset="0%" stop-color="#4a5059"/>
      <stop offset="45%" stop-color="#2f343b"/>
      <stop offset="100%" stop-color="#171b21"/>
    </linearGradient>
    <linearGradient id="darkBody2" x1="0" y1="0" x2="1" y2="1">
      <stop offset="0%" stop-color="#59616c"/>
      <stop offset="100%" stop-color="#1d2229"/>
    </linearGradient>
    <linearGradient id="creamBody" x1="0" y1="0" x2="1" y2="1">
      <stop offset="0%" stop-color="#f0ece2"/>
      <stop offset="100%" stop-color="#d8d1c4"/>
    </linearGradient>
    <linearGradient id="glass" x1="0" y1="0" x2="0" y2="1">
      <stop offset="0%" stop-color="#cfd3d8" stop-opacity="0.75"/>
      <stop offset="100%" stop-color="#666b72" stop-opacity="0.55"/>
    </linearGradient>
    <linearGradient id="redGrad" x1="0" y1="0" x2="1" y2="1">
      <stop offset="0%" stop-color="#ff4b44"/>
      <stop offset="100%" stop-color="#be0f15"/>
    </linearGradient>
    <linearGradient id="redGrad2" x1="0" y1="0" x2="0" y2="1">
      <stop offset="0%" stop-color="#f33924"/>
      <stop offset="100%" stop-color="#b9110d"/>
    </linearGradient>
    <linearGradient id="yellowGrad" x1="0" y1="0" x2="0" y2="1">
      <stop offset="0%" stop-color="#ffd922"/>
      <stop offset="100%" stop-color="#f2bd00"/>
    </linearGradient>
    <filter id="shadow" x="-20%" y="-20%" width="140%" height="140%">
      <feDropShadow dx="0" dy="8" stdDeviation="10" flood-color="#000000" flood-opacity="0.18"/>
    </filter>
  </defs>
  <g filter="url(#shadow)">
    
    <rect x="122" y="430" width="198" height="150" rx="22" fill="url(#metal)" stroke="#9c9c9c" stroke-width="4"/>
    <circle cx="202" cy="505.0" r="52" fill="none" stroke="#a0a0a0" stroke-width="6"/>
    <rect x="130" y="438" width="182" height="134" rx="18" fill="none" stroke="#ffffff" stroke-opacity="0.45" stroke-width="3"/>
    
    
    <rect x="704" y="430" width="198" height="150" rx="22" fill="url(#metal)" stroke="#9c9c9c" stroke-width="4"/>
    <circle cx="822" cy="505.0" r="52" fill="none" stroke="#a0a0a0" stroke-width="6"/>
    <rect x="712" y="438" width="182" height="134" rx="18" fill="none" stroke="#ffffff" stroke-opacity="0.45" stroke-width="3"/>
    
    <rect x="394" y="408" width="236" height="194" rx="22" fill="url(#creamBody)" stroke="#b6afa2" stroke-width="5"/>
    <rect x="414" y="426" width="196" height="158" rx="18" fill="#ece7dc" stroke="#d0c8b9" stroke-width="4"/>
    <circle cx="430" cy="448" r="14" fill="#13181d" stroke="#4f545c" stroke-width="6"/><circle cx="594" cy="448" r="14" fill="#13181d" stroke="#4f545c" stroke-width="6"/><circle cx="430" cy="562" r="14" fill="#13181d" stroke="#4f545c" stroke-width="6"/><circle cx="594" cy="562" r="14" fill="#13181d" stroke="#4f545c" stroke-width="6"/>
    <rect x="466" y="468" width="92" height="56" rx="10" fill="#dfd7c8" stroke="#c7beae" stroke-width="4"/>
    <path d="M486,496 h12 c8 0 12 -4 18 -10 c6 -6 10 -8 18 -8 h4" stroke="#b8af9f" stroke-width="10" fill="none" stroke-linecap="round"/>
    <path d="M556,478 h4 c8 0 12 2 18 8 c6 6 10 10 18 10 h12" stroke="#b8af9f" stroke-width="10" fill="none" stroke-linecap="round"/>
    <path d="M394,604 h236" stroke="#a5a094" stroke-opacity="0.3" stroke-width="5"/>
    </g>
</svg>