<svg xmlns="http://www.w3.org/2000/svg" width="840" height="278" viewBox="92 372 840 278" role="img" aria-label="mega_fuse">
  <defs>
    <linearGradient id="metal" x1="0" y1="0" x2="0" y2="1">
      <stop offset="0%" stop-color="#f5f5f5"/>
      <stop offset="55%" stop-color="#d8d8d8"/>
      <stop offset="100%" stop-color="#c5c5c5"/>
    </linearGradient>
    <linearGradient id="metalDark" x1="0" y1="0" x2="0" y2="1">
      <stop offset="0%" stop-color="#efefef"/>
      <stop offset="100%" stop-color="#b7b7b7"/>
    </linearGradient>
    <linearGradient id="darkBody" x1="0" y1="0" x2="1" y2="1">
      <stop offset="0%" stop-color="#4a5059"/>
      <stop offset="45%" stop-color="#2f343b"/>
      <stop offset="100%" stop-color="#171b21"/>
    </linearGradient>
    <linearGradient id="darkBody2" x1="0" y1="0" x2="1" y2="1">
      <stop offset="0%" stop-color="#59616c"/>
      <stop offset="100%" stop-color="#1d2229"/>
    </linearGradient>
    <linearGradient id="creamBody" x1="0" y1="0" x2="1" y2="1">
      <stop offset="0%" stop-color="#f0ece2"/>
      <stop offset="100%" stop-color="#d8d1c4"/>
    </linearGradient>
    <linearGradient id="glass" x1="0" y1="0" x2="0" y2="1">
      <stop offset="0%" stop-color="#cfd3d8" stop-opacity="0.75"/>
      <stop offset="100%" stop-color="#666b72" stop-opacity="0.55"/>
    </linearGradient>
    <linearGradient id="redGrad" x1="0" y1="0" x2="1" y2="1">
      <stop offset="0%" stop-color="#ff4b44"/>
      <stop offset="100%" stop-color="#be0f15"/>
    </linearGradient>
    <linearGradient id="redGrad2" x1="0" y1="0" x2="0" y2="1">
      <stop offset="0%" stop-color="#f33924"/>
      <stop offset="100%" stop-color="#b9110d"/>
    </linearGradient>
    <linearGradient id="yellowGrad" x1="0" y1="0" x2="0" y2="1">
      <stop offset="0%" stop-color="#ffd922"/>
      <stop offset="100%" stop-color="#f2bd00"/>
    </linearGradient>
    <filter id="shadow" x="-20%" y="-20%" width="140%" height="140%">
      <feDropShadow dx="0" dy="8" stdDeviation="10" flood-color="#000000" flood-opacity="0.18"/>
    </filter>
  </defs>
  <g filter="url(#shadow)">
    
    <rect x="106" y="420" width="214" height="162" rx="22" fill="url(#metal)" stroke="#9c9c9c" stroke-width="4"/>
    <circle cx="186" cy="501.0" r="58" fill="none" stroke="#a0a0a0" stroke-width="6"/>
    <rect x="114" y="428" width="198" height="146" rx="18" fill="none" stroke="#ffffff" stroke-opacity="0.45" stroke-width="3"/>
    
    
    <rect x="704" y="420" width="214" height="162" rx="22" fill="url(#metal)" stroke="#9c9c9c" stroke-width="4"/>
    <circle cx="838" cy="501.0" r="58" fill="none" stroke="#a0a0a0" stroke-width="6"/>
    <rect x="712" y="428" width="198" height="146" rx="18" fill="none" stroke="#ffffff" stroke-opacity="0.45" stroke-width="3"/>
    
    <path d="M370,386 h284 l28,28 v176 l-28,28 h-92 l-18,18 h-108 l-18,-18 h-48 l-24,-24 v-184z" fill="url(#darkBody)" stroke="#1c2026" stroke-width="6"/>
    <path d="M390,404 h244 c18,0 32,10 42,24" stroke="#69707a" stroke-opacity="0.38" stroke-width="6" fill="none"/>
    <path d="M456,476 h132" stroke="#1f2328" stroke-width="10" stroke-linecap="round" opacity="0.46"/>
    
    <rect x="430" y="456" width="164" height="92" rx="18" fill="#2e333a" stroke="#1f242b" stroke-width="6"/>
    <path d="M 472 502.0 h 26 c 16 0 22 -8 32 -18 c 10 -10 18 -15 36 -15 h 22 c 18 0 26 5 36 15 c 10 10 16 18 32 18 h 26" stroke="#6b7077" stroke-width="16" fill="none" stroke-linecap="round"/>
    
    <circle cx="404" cy="446" r="18" fill="#13181d" stroke="#4f545c" stroke-width="6"/><circle cx="620" cy="446" r="18" fill="#13181d" stroke="#4f545c" stroke-width="6"/><circle cx="404" cy="566" r="18" fill="#13181d" stroke="#4f545c" stroke-width="6"/><circle cx="620" cy="566" r="18" fill="#13181d" stroke="#4f545c" stroke-width="6"/>
    </g>
</svg>