<svg xmlns="http://www.w3.org/2000/svg" width="852" height="412" viewBox="86 416 852 412" role="img" aria-label="mrbf_terminal_fuse">
  <defs>
    <linearGradient id="metal" x1="0" y1="0" x2="0" y2="1">
      <stop offset="0%" stop-color="#f5f5f5"/>
      <stop offset="55%" stop-color="#d8d8d8"/>
      <stop offset="100%" stop-color="#c5c5c5"/>
    </linearGradient>
    <linearGradient id="metalDark" x1="0" y1="0" x2="0" y2="1">
      <stop offset="0%" stop-color="#efefef"/>
      <stop offset="100%" stop-color="#b7b7b7"/>
    </linearGradient>
    <linearGradient id="darkBody" x1="0" y1="0" x2="1" y2="1">
      <stop offset="0%" stop-color="#4a5059"/>
      <stop offset="45%" stop-color="#2f343b"/>
      <stop offset="100%" stop-color="#171b21"/>
    </linearGradient>
    <linearGradient id="darkBody2" x1="0" y1="0" x2="1" y2="1">
      <stop offset="0%" stop-color="#59616c"/>
      <stop offset="100%" stop-color="#1d2229"/>
    </linearGradient>
    <linearGradient id="creamBody" x1="0" y1="0" x2="1" y2="1">
      <stop offset="0%" stop-color="#f0ece2"/>
      <stop offset="100%" stop-color="#d8d1c4"/>
    </linearGradient>
    <linearGradient id="glass" x1="0" y1="0" x2="0" y2="1">
      <stop offset="0%" stop-color="#cfd3d8" stop-opacity="0.75"/>
      <stop offset="100%" stop-color="#666b72" stop-opacity="0.55"/>
    </linearGradient>
    <linearGradient id="redGrad" x1="0" y1="0" x2="1" y2="1">
      <stop offset="0%" stop-color="#ff4b44"/>
      <stop offset="100%" stop-color="#be0f15"/>
    </linearGradient>
    <linearGradient id="redGrad2" x1="0" y1="0" x2="0" y2="1">
      <stop offset="0%" stop-color="#f33924"/>
      <stop offset="100%" stop-color="#b9110d"/>
    </linearGradient>
    <linearGradient id="yellowGrad" x1="0" y1="0" x2="0" y2="1">
      <stop offset="0%" stop-color="#ffd922"/>
      <stop offset="100%" stop-color="#f2bd00"/>
    </linearGradient>
    <filter id="shadow" x="-20%" y="-20%" width="140%" height="140%">
      <feDropShadow dx="0" dy="8" stdDeviation="10" flood-color="#000000" flood-opacity="0.18"/>
    </filter>
  </defs>
  <g filter="url(#shadow)">
    <path d="M100,560 h220 l38,-34 h308 l38,34 h220 v56 h-24 c-34,0 -64,20 -80,50 l-16,28 h-592 l-16,-28 c-16,-30 -46,-50 -80,-50 h-16 z" fill="url(#darkBody)" stroke="#20242a" stroke-width="6"/>
    <path d="M218,698 h588 c52,0 88,34 88,82 v26 h-764 v-26 c0,-48 36,-82 88,-82z" fill="#1c2026"/>
    <circle cx="512" cy="780" r="34" fill="#ffffff" stroke="#a7a7a7" stroke-width="8"/>
    <rect x="364" y="430" width="296" height="216" rx="20" fill="url(#glass)" stroke="#7b8088" stroke-width="5"/>
    <rect x="392" y="474" width="240" height="126" rx="14" fill="#242a31" fill-opacity="0.34"/>
    <rect x="120" y="538" width="220" height="124" rx="16" fill="url(#metalDark)" stroke="#90959c" stroke-width="5"/>
    <rect x="684" y="538" width="220" height="124" rx="16" fill="url(#metalDark)" stroke="#90959c" stroke-width="5"/>
    <circle cx="182" cy="600" r="44" fill="none" stroke="#94989f" stroke-width="6"/>
    <circle cx="842" cy="600" r="44" fill="none" stroke="#94989f" stroke-width="6"/>
    <g>
      <circle cx="298" cy="570" r="64" fill="#f3f3f3" stroke="#a1a5ab" stroke-width="6"/>
      <polygon points="262,530 316,530 344,570 316,610 262,610 234,570" fill="#dedede" stroke="#a1a5ab" stroke-width="4"/>
      <circle cx="298" cy="570" r="34" fill="#f0f0f0" stroke="#aeb2b7" stroke-width="5"/>
    </g>
    <g>
      <circle cx="726" cy="570" r="64" fill="#f3f3f3" stroke="#a1a5ab" stroke-width="6"/>
      <polygon points="690,530 744,530 772,570 744,610 690,610 662,570" fill="#dedede" stroke="#a1a5ab" stroke-width="4"/>
      <circle cx="726" cy="570" r="34" fill="#f0f0f0" stroke="#aeb2b7" stroke-width="5"/>
    </g>
    <path d="M444,536 h28 c14,0 20 -6 30 -16 c10 -10 18 -14 32 -14 h18 c14,0 22 4 32 14 c10 10 16 16 30 16 h28" stroke="#9aa0a8" stroke-width="16" fill="none" stroke-linecap="round" opacity="0.65"/>
    </g>
</svg>