<svg xmlns="http://www.w3.org/2000/svg" width="868" height="268" viewBox="78 370 868 268" role="img" aria-label="anl_fuse">
  <defs>
    <linearGradient id="metal" x1="0" y1="0" x2="0" y2="1">
      <stop offset="0%" stop-color="#f5f5f5"/>
      <stop offset="55%" stop-color="#d8d8d8"/>
      <stop offset="100%" stop-color="#c5c5c5"/>
    </linearGradient>
    <linearGradient id="metalDark" x1="0" y1="0" x2="0" y2="1">
      <stop offset="0%" stop-color="#efefef"/>
      <stop offset="100%" stop-color="#b7b7b7"/>
    </linearGradient>
    <linearGradient id="darkBody" x1="0" y1="0" x2="1" y2="1">
      <stop offset="0%" stop-color="#4a5059"/>
      <stop offset="45%" stop-color="#2f343b"/>
      <stop offset="100%" stop-color="#171b21"/>
    </linearGradient>
    <linearGradient id="darkBody2" x1="0" y1="0" x2="1" y2="1">
      <stop offset="0%" stop-color="#59616c"/>
      <stop offset="100%" stop-color="#1d2229"/>
    </linearGradient>
    <linearGradient id="creamBody" x1="0" y1="0" x2="1" y2="1">
      <stop offset="0%" stop-color="#f0ece2"/>
      <stop offset="100%" stop-color="#d8d1c4"/>
    </linearGradient>
    <linearGradient id="glass" x1="0" y1="0" x2="0" y2="1">
      <stop offset="0%" stop-color="#cfd3d8" stop-opacity="0.75"/>
      <stop offset="100%" stop-color="#666b72" stop-opacity="0.55"/>
    </linearGradient>
    <linearGradient id="redGrad" x1="0" y1="0" x2="1" y2="1">
      <stop offset="0%" stop-color="#ff4b44"/>
      <stop offset="100%" stop-color="#be0f15"/>
    </linearGradient>
    <linearGradient id="redGrad2" x1="0" y1="0" x2="0" y2="1">
      <stop offset="0%" stop-color="#f33924"/>
      <stop offset="100%" stop-color="#b9110d"/>
    </linearGradient>
    <linearGradient id="yellowGrad" x1="0" y1="0" x2="0" y2="1">
      <stop offset="0%" stop-color="#ffd922"/>
      <stop offset="100%" stop-color="#f2bd00"/>
    </linearGradient>
    <filter id="shadow" x="-20%" y="-20%" width="140%" height="140%">
      <feDropShadow dx="0" dy="8" stdDeviation="10" flood-color="#000000" flood-opacity="0.18"/>
    </filter>
  </defs>
  <g filter="url(#shadow)">
    
    <rect x="92" y="418" width="220" height="170" rx="22" fill="url(#metal)" stroke="#9c9c9c" stroke-width="4"/>
    <circle cx="172" cy="503.0" r="60" fill="none" stroke="#a0a0a0" stroke-width="6"/>
    <rect x="100" y="426" width="204" height="154" rx="18" fill="none" stroke="#ffffff" stroke-opacity="0.45" stroke-width="3"/>
    
    
    <rect x="712" y="418" width="220" height="170" rx="22" fill="url(#metal)" stroke="#9c9c9c" stroke-width="4"/>
    <circle cx="852" cy="503.0" r="60" fill="none" stroke="#a0a0a0" stroke-width="6"/>
    <rect x="720" y="426" width="204" height="154" rx="18" fill="none" stroke="#ffffff" stroke-opacity="0.45" stroke-width="3"/>
    
    <path d="M372,384 H652 L678,410 V598 L652,624 H372 L346,598 V410 Z" fill="url(#darkBody)" stroke="#1d2126" stroke-width="6"/>
    <path d="M364,402 H660 V606 H364 Z" fill="none" stroke="#5d646e" stroke-opacity="0.45" stroke-width="6"/>
    <path d="M460,482 h104" stroke="#1f2328" stroke-width="10" stroke-linecap="round" opacity="0.5"/>
    
    <rect x="435" y="454" width="154" height="92" rx="18" fill="#2e333a" stroke="#1f242b" stroke-width="6"/>
    <path d="M 477 500.0 h 26 c 16 0 22 -8 32 -18 c 10 -10 18 -15 36 -15 h 22 c 18 0 26 5 36 15 c 10 10 16 18 32 18 h 26" stroke="#72777f" stroke-width="16" fill="none" stroke-linecap="round"/>
    
    <circle cx="410" cy="438" r="19" fill="#13181d" stroke="#4f545c" stroke-width="6"/><circle cx="614" cy="438" r="19" fill="#13181d" stroke="#4f545c" stroke-width="6"/><circle cx="410" cy="570" r="19" fill="#13181d" stroke="#4f545c" stroke-width="6"/><circle cx="614" cy="570" r="19" fill="#13181d" stroke="#4f545c" stroke-width="6"/>
    </g>
</svg>