<svg xmlns="http://www.w3.org/2000/svg" width="768" height="244" viewBox="128 388 768 244" role="img" aria-label="midi_fuse">
  <defs>
    <linearGradient id="metal" x1="0" y1="0" x2="0" y2="1">
      <stop offset="0%" stop-color="#f5f5f5"/>
      <stop offset="55%" stop-color="#d8d8d8"/>
      <stop offset="100%" stop-color="#c5c5c5"/>
    </linearGradient>
    <linearGradient id="metalDark" x1="0" y1="0" x2="0" y2="1">
      <stop offset="0%" stop-color="#efefef"/>
      <stop offset="100%" stop-color="#b7b7b7"/>
    </linearGradient>
    <linearGradient id="darkBody" x1="0" y1="0" x2="1" y2="1">
      <stop offset="0%" stop-color="#4a5059"/>
      <stop offset="45%" stop-color="#2f343b"/>
      <stop offset="100%" stop-color="#171b21"/>
    </linearGradient>
    <linearGradient id="darkBody2" x1="0" y1="0" x2="1" y2="1">
      <stop offset="0%" stop-color="#59616c"/>
      <stop offset="100%" stop-color="#1d2229"/>
    </linearGradient>
    <linearGradient id="creamBody" x1="0" y1="0" x2="1" y2="1">
      <stop offset="0%" stop-color="#f0ece2"/>
      <stop offset="100%" stop-color="#d8d1c4"/>
    </linearGradient>
    <linearGradient id="glass" x1="0" y1="0" x2="0" y2="1">
      <stop offset="0%" stop-color="#cfd3d8" stop-opacity="0.75"/>
      <stop offset="100%" stop-color="#666b72" stop-opacity="0.55"/>
    </linearGradient>
    <linearGradient id="redGrad" x1="0" y1="0" x2="1" y2="1">
      <stop offset="0%" stop-color="#ff4b44"/>
      <stop offset="100%" stop-color="#be0f15"/>
    </linearGradient>
    <linearGradient id="redGrad2" x1="0" y1="0" x2="0" y2="1">
      <stop offset="0%" stop-color="#f33924"/>
      <stop offset="100%" stop-color="#b9110d"/>
    </linearGradient>
    <linearGradient id="yellowGrad" x1="0" y1="0" x2="0" y2="1">
      <stop offset="0%" stop-color="#ffd922"/>
      <stop offset="100%" stop-color="#f2bd00"/>
    </linearGradient>
    <filter id="shadow" x="-20%" y="-20%" width="140%" height="140%">
      <feDropShadow dx="0" dy="8" stdDeviation="10" flood-color="#000000" flood-opacity="0.18"/>
    </filter>
  </defs>
  <g filter="url(#shadow)">
    
    <rect x="142" y="432" width="196" height="150" rx="22" fill="url(#metal)" stroke="#9c9c9c" stroke-width="4"/>
    <circle cx="222" cy="507.0" r="55" fill="none" stroke="#a0a0a0" stroke-width="6"/>
    <rect x="150" y="440" width="180" height="134" rx="18" fill="none" stroke="#ffffff" stroke-opacity="0.45" stroke-width="3"/>
    
    
    <rect x="686" y="432" width="196" height="150" rx="22" fill="url(#metal)" stroke="#9c9c9c" stroke-width="4"/>
    <circle cx="802" cy="507.0" r="55" fill="none" stroke="#a0a0a0" stroke-width="6"/>
    <rect x="694" y="440" width="180" height="134" rx="18" fill="none" stroke="#ffffff" stroke-opacity="0.45" stroke-width="3"/>
    
    <path d="M402,402 h220 l26,26 v154 l-26,26 h-70 l-10,10 h-60 l-10,-10 h-50 l-20,-20 v-160z" fill="url(#darkBody)" stroke="#1a1e24" stroke-width="6"/>
    
    <rect x="446" y="464" width="122" height="72" rx="18" fill="#2e333a" stroke="#1f242b" stroke-width="6"/>
    <path d="M 488 500.0 h 26 c 16 0 22 -8 32 -18 c 10 -10 18 -15 36 -15 h 22 c 18 0 26 5 36 15 c 10 10 16 18 32 18 h 26" stroke="#747a82" stroke-width="16" fill="none" stroke-linecap="round"/>
    
    <circle cx="434" cy="452" r="16" fill="#13181d" stroke="#4f545c" stroke-width="6"/><circle cx="602" cy="452" r="16" fill="#13181d" stroke="#4f545c" stroke-width="6"/><circle cx="434" cy="562" r="16" fill="#13181d" stroke="#4f545c" stroke-width="6"/><circle cx="602" cy="562" r="16" fill="#13181d" stroke="#4f545c" stroke-width="6"/>
    </g>
</svg>