<svg xmlns="http://www.w3.org/2000/svg" width="341.12" height="918" viewBox="341.44 106 341.12 918" role="img" aria-label="mc4_branch_3_to_1">
  <defs>
    <linearGradient id="metal" x1="0" y1="0" x2="0" y2="1">
      <stop offset="0%" stop-color="#f5f5f5"/>
      <stop offset="55%" stop-color="#d8d8d8"/>
      <stop offset="100%" stop-color="#c5c5c5"/>
    </linearGradient>
    <linearGradient id="metalDark" x1="0" y1="0" x2="0" y2="1">
      <stop offset="0%" stop-color="#efefef"/>
      <stop offset="100%" stop-color="#b7b7b7"/>
    </linearGradient>
    <linearGradient id="darkBody" x1="0" y1="0" x2="1" y2="1">
      <stop offset="0%" stop-color="#4a5059"/>
      <stop offset="45%" stop-color="#2f343b"/>
      <stop offset="100%" stop-color="#171b21"/>
    </linearGradient>
    <linearGradient id="darkBody2" x1="0" y1="0" x2="1" y2="1">
      <stop offset="0%" stop-color="#59616c"/>
      <stop offset="100%" stop-color="#1d2229"/>
    </linearGradient>
    <linearGradient id="creamBody" x1="0" y1="0" x2="1" y2="1">
      <stop offset="0%" stop-color="#f0ece2"/>
      <stop offset="100%" stop-color="#d8d1c4"/>
    </linearGradient>
    <linearGradient id="glass" x1="0" y1="0" x2="0" y2="1">
      <stop offset="0%" stop-color="#cfd3d8" stop-opacity="0.75"/>
      <stop offset="100%" stop-color="#666b72" stop-opacity="0.55"/>
    </linearGradient>
    <linearGradient id="redGrad" x1="0" y1="0" x2="1" y2="1">
      <stop offset="0%" stop-color="#ff4b44"/>
      <stop offset="100%" stop-color="#be0f15"/>
    </linearGradient>
    <linearGradient id="redGrad2" x1="0" y1="0" x2="0" y2="1">
      <stop offset="0%" stop-color="#f33924"/>
      <stop offset="100%" stop-color="#b9110d"/>
    </linearGradient>
    <linearGradient id="yellowGrad" x1="0" y1="0" x2="0" y2="1">
      <stop offset="0%" stop-color="#ffd922"/>
      <stop offset="100%" stop-color="#f2bd00"/>
    </linearGradient>
    <filter id="shadow" x="-20%" y="-20%" width="140%" height="140%">
      <feDropShadow dx="0" dy="8" stdDeviation="10" flood-color="#000000" flood-opacity="0.18"/>
    </filter>
  </defs>
  <g filter="url(#shadow)">
    <g transform="translate(0,-10)">
      
    <g transform="translate(512,130) scale(1.65)">
      <rect x="-8" y="0" width="16" height="58" rx="3" fill="#2a2f36"/>
      <rect x="-14" y="48" width="28" height="44" rx="8" fill="#20252c"/>
      <polygon points="-10,54 10,54 18,70 10,86 -10,86 -18,70" fill="#1b1f25"/>
      <rect x="-24" y="90" width="48" height="54" rx="11" fill="#2d3239"/>
      <rect x="-16" y="100" width="6" height="34" rx="3" fill="#1a1e23"/>
      <rect x="-3" y="100" width="6" height="34" rx="3" fill="#1a1e23"/>
      <rect x="10" y="100" width="6" height="34" rx="3" fill="#1a1e23"/>
      <rect x="-24" y="144" width="48" height="28" rx="4" fill="#21262d"/>
      <polygon points="-24,154 -34,146 -36,156 -34,166 -24,158" fill="#1a1e23"/>
      <polygon points="24,154 34,146 36,156 34,166 24,158" fill="#1a1e23"/>
      <rect x="-16" y="172" width="32" height="62" rx="4" fill="#2b3038"/>
      <rect x="-17" y="58" width="34" height="7" rx="3" fill="#e23a27"/>
    </g>
    
      <path d="M512,520 v90" stroke="#242930" stroke-width="20" stroke-linecap="round"/>
      <path d="M512,610 v42" stroke="#242930" stroke-width="20" stroke-linecap="round"/>
      <path d="M512,650 C512,690 450,704 398,718" stroke="#242930" stroke-width="20" fill="none" stroke-linecap="round"/>
      <path d="M512,650 C512,690 512,704 512,718" stroke="#242930" stroke-width="20" fill="none" stroke-linecap="round"/>
      <path d="M512,650 C512,690 574,704 626,718" stroke="#242930" stroke-width="20" fill="none" stroke-linecap="round"/>
      <path d="M450,620 h124 c20,0 36,-16 36,-36 v-8 c0,-18 -12,-34 -28,-42 h-140 c-16,8 -28,24 -28,42 v8 c0,20 16,36 36,36z" fill="url(#darkBody)" stroke="#15191f" stroke-width="5"/>
      <circle cx="512" cy="632" r="14" fill="#111418" stroke="#ffffff" stroke-width="8"/>
      
    <g transform="translate(398,718) scale(1.52)">
      <rect x="-22" y="0" width="44" height="52" rx="9" fill="#20252c"/>
      <polygon points="-14,10 14,10 24,26 14,42 -14,42 -24,26" fill="#1c2026"/>
      <rect x="-24" y="52" width="48" height="58" rx="11" fill="#2d3239"/>
      <rect x="-16" y="62" width="6" height="38" rx="3" fill="#1a1e23"/>
      <rect x="-3" y="62" width="6" height="38" rx="3" fill="#1a1e23"/>
      <rect x="10" y="62" width="6" height="38" rx="3" fill="#1a1e23"/>
      <rect x="-18" y="110" width="36" height="104" rx="4" fill="#2a2f36"/>
      <path d="M-18,124 h-10 v20 h10 M18,124 h10 v20 h-10 M-18,180 h-10 v20 h10 M18,180 h10 v20 h-10" fill="#20252b"/>
    </g>
    
      
    <g transform="translate(512,718) scale(1.52)">
      <rect x="-22" y="0" width="44" height="52" rx="9" fill="#20252c"/>
      <polygon points="-14,10 14,10 24,26 14,42 -14,42 -24,26" fill="#1c2026"/>
      <rect x="-24" y="52" width="48" height="58" rx="11" fill="#2d3239"/>
      <rect x="-16" y="62" width="6" height="38" rx="3" fill="#1a1e23"/>
      <rect x="-3" y="62" width="6" height="38" rx="3" fill="#1a1e23"/>
      <rect x="10" y="62" width="6" height="38" rx="3" fill="#1a1e23"/>
      <rect x="-18" y="110" width="36" height="104" rx="4" fill="#2a2f36"/>
      <path d="M-18,124 h-10 v20 h10 M18,124 h10 v20 h-10 M-18,180 h-10 v20 h10 M18,180 h10 v20 h-10" fill="#20252b"/>
    </g>
    
      
    <g transform="translate(626,718) scale(1.52)">
      <rect x="-22" y="0" width="44" height="52" rx="9" fill="#20252c"/>
      <polygon points="-14,10 14,10 24,26 14,42 -14,42 -24,26" fill="#1c2026"/>
      <rect x="-24" y="52" width="48" height="58" rx="11" fill="#2d3239"/>
      <rect x="-16" y="62" width="6" height="38" rx="3" fill="#1a1e23"/>
      <rect x="-3" y="62" width="6" height="38" rx="3" fill="#1a1e23"/>
      <rect x="10" y="62" width="6" height="38" rx="3" fill="#1a1e23"/>
      <rect x="-18" y="110" width="36" height="104" rx="4" fill="#2a2f36"/>
      <path d="M-18,124 h-10 v20 h10 M18,124 h10 v20 h-10 M-18,180 h-10 v20 h10 M18,180 h10 v20 h-10" fill="#20252b"/>
    </g>
    
      <path d="M398,718 v-80" stroke="#242930" stroke-width="18" stroke-linecap="round"/>
      <path d="M512,718 v-80" stroke="#242930" stroke-width="18" stroke-linecap="round"/>
      <path d="M626,718 v-80" stroke="#242930" stroke-width="18" stroke-linecap="round"/>
    </g>
    </g>
</svg>