<svg xmlns="http://www.w3.org/2000/svg" width="781.8" height="868" viewBox="242.2 156 781.8 868" role="img" aria-label="mc4_branch_2_to_1">
  <defs>
    <linearGradient id="metal" x1="0" y1="0" x2="0" y2="1">
      <stop offset="0%" stop-color="#f5f5f5"/>
      <stop offset="55%" stop-color="#d8d8d8"/>
      <stop offset="100%" stop-color="#c5c5c5"/>
    </linearGradient>
    <linearGradient id="metalDark" x1="0" y1="0" x2="0" y2="1">
      <stop offset="0%" stop-color="#efefef"/>
      <stop offset="100%" stop-color="#b7b7b7"/>
    </linearGradient>
    <linearGradient id="darkBody" x1="0" y1="0" x2="1" y2="1">
      <stop offset="0%" stop-color="#4a5059"/>
      <stop offset="45%" stop-color="#2f343b"/>
      <stop offset="100%" stop-color="#171b21"/>
    </linearGradient>
    <linearGradient id="darkBody2" x1="0" y1="0" x2="1" y2="1">
      <stop offset="0%" stop-color="#59616c"/>
      <stop offset="100%" stop-color="#1d2229"/>
    </linearGradient>
    <linearGradient id="creamBody" x1="0" y1="0" x2="1" y2="1">
      <stop offset="0%" stop-color="#f0ece2"/>
      <stop offset="100%" stop-color="#d8d1c4"/>
    </linearGradient>
    <linearGradient id="glass" x1="0" y1="0" x2="0" y2="1">
      <stop offset="0%" stop-color="#cfd3d8" stop-opacity="0.75"/>
      <stop offset="100%" stop-color="#666b72" stop-opacity="0.55"/>
    </linearGradient>
    <linearGradient id="redGrad" x1="0" y1="0" x2="1" y2="1">
      <stop offset="0%" stop-color="#ff4b44"/>
      <stop offset="100%" stop-color="#be0f15"/>
    </linearGradient>
    <linearGradient id="redGrad2" x1="0" y1="0" x2="0" y2="1">
      <stop offset="0%" stop-color="#f33924"/>
      <stop offset="100%" stop-color="#b9110d"/>
    </linearGradient>
    <linearGradient id="yellowGrad" x1="0" y1="0" x2="0" y2="1">
      <stop offset="0%" stop-color="#ffd922"/>
      <stop offset="100%" stop-color="#f2bd00"/>
    </linearGradient>
    <filter id="shadow" x="-20%" y="-20%" width="140%" height="140%">
      <feDropShadow dx="0" dy="8" stdDeviation="10" flood-color="#000000" flood-opacity="0.18"/>
    </filter>
  </defs>
  <g filter="url(#shadow)">
    <g transform="translate(0,10)">
      
    <g transform="translate(340,178) scale(1.7)">
      <rect x="-8" y="0" width="16" height="58" rx="3" fill="#2a2f36"/>
      <rect x="-14" y="48" width="28" height="44" rx="8" fill="#20252c"/>
      <polygon points="-10,54 10,54 18,70 10,86 -10,86 -18,70" fill="#1b1f25"/>
      <rect x="-24" y="90" width="48" height="54" rx="11" fill="#2d3239"/>
      <rect x="-16" y="100" width="6" height="34" rx="3" fill="#1a1e23"/>
      <rect x="-3" y="100" width="6" height="34" rx="3" fill="#1a1e23"/>
      <rect x="10" y="100" width="6" height="34" rx="3" fill="#1a1e23"/>
      <rect x="-24" y="144" width="48" height="28" rx="4" fill="#21262d"/>
      <polygon points="-24,154 -34,146 -36,156 -34,166 -24,158" fill="#1a1e23"/>
      <polygon points="24,154 34,146 36,156 34,166 24,158" fill="#1a1e23"/>
      <rect x="-16" y="172" width="32" height="62" rx="4" fill="#2b3038"/>
      <rect x="-17" y="58" width="34" height="7" rx="3" fill="#e23a27"/>
    </g>
    
      <path d="M340,575 v80" stroke="#242930" stroke-width="20" stroke-linecap="round"/>
      
    <path d="M276,700 h128 c12,0 22,-10 22,-22 v-10 c0,-22 16,-40 36,-48 h20 c20,8 36,26 36,48 v10 c0,12 10,22 22,22 h128 v40 h-216 z" fill="url(#darkBody)" stroke="#15191f" stroke-width="5"/>
    <circle cx="340.0" cy="710" r="16" fill="#fff" stroke="#111418" stroke-width="8"/>
    
      <path d="M312,740 v82" stroke="#242930" stroke-width="18" stroke-linecap="round"/>
      <path d="M368,740 v82" stroke="#242930" stroke-width="18" stroke-linecap="round"/>
      
    <g transform="translate(312,822) scale(1.55)">
      <rect x="-8" y="0" width="16" height="58" rx="3" fill="#2a2f36"/>
      <rect x="-14" y="48" width="28" height="44" rx="8" fill="#20252c"/>
      <polygon points="-10,54 10,54 18,70 10,86 -10,86 -18,70" fill="#1b1f25"/>
      <rect x="-24" y="90" width="48" height="54" rx="11" fill="#2d3239"/>
      <rect x="-16" y="100" width="6" height="34" rx="3" fill="#1a1e23"/>
      <rect x="-3" y="100" width="6" height="34" rx="3" fill="#1a1e23"/>
      <rect x="10" y="100" width="6" height="34" rx="3" fill="#1a1e23"/>
      <rect x="-24" y="144" width="48" height="28" rx="4" fill="#21262d"/>
      <polygon points="-24,154 -34,146 -36,156 -34,166 -24,158" fill="#1a1e23"/>
      <polygon points="24,154 34,146 36,156 34,166 24,158" fill="#1a1e23"/>
      <rect x="-16" y="172" width="32" height="62" rx="4" fill="#2b3038"/>
      <rect x="-17" y="58" width="34" height="7" rx="3" fill="#e23a27"/>
    </g>
    
      
    <g transform="translate(368,822) scale(1.55)">
      <rect x="-8" y="0" width="16" height="58" rx="3" fill="#2a2f36"/>
      <rect x="-14" y="48" width="28" height="44" rx="8" fill="#20252c"/>
      <polygon points="-10,54 10,54 18,70 10,86 -10,86 -18,70" fill="#1b1f25"/>
      <rect x="-24" y="90" width="48" height="54" rx="11" fill="#2d3239"/>
      <rect x="-16" y="100" width="6" height="34" rx="3" fill="#1a1e23"/>
      <rect x="-3" y="100" width="6" height="34" rx="3" fill="#1a1e23"/>
      <rect x="10" y="100" width="6" height="34" rx="3" fill="#1a1e23"/>
      <rect x="-24" y="144" width="48" height="28" rx="4" fill="#21262d"/>
      <polygon points="-24,154 -34,146 -36,156 -34,166 -24,158" fill="#1a1e23"/>
      <polygon points="24,154 34,146 36,156 34,166 24,158" fill="#1a1e23"/>
      <rect x="-16" y="172" width="32" height="62" rx="4" fill="#2b3038"/>
      <rect x="-17" y="58" width="34" height="7" rx="3" fill="#e23a27"/>
    </g>
    
      
    <g transform="translate(696,160) scale(1.8)">
      <rect x="-22" y="0" width="44" height="52" rx="9" fill="#20252c"/>
      <polygon points="-14,10 14,10 24,26 14,42 -14,42 -24,26" fill="#1c2026"/>
      <rect x="-24" y="52" width="48" height="58" rx="11" fill="#2d3239"/>
      <rect x="-16" y="62" width="6" height="38" rx="3" fill="#1a1e23"/>
      <rect x="-3" y="62" width="6" height="38" rx="3" fill="#1a1e23"/>
      <rect x="10" y="62" width="6" height="38" rx="3" fill="#1a1e23"/>
      <rect x="-18" y="110" width="36" height="104" rx="4" fill="#2a2f36"/>
      <path d="M-18,124 h-10 v20 h10 M18,124 h10 v20 h-10 M-18,180 h-10 v20 h10 M18,180 h10 v20 h-10" fill="#20252b"/>
    </g>
    
      <path d="M696,545 v100" stroke="#242930" stroke-width="20" stroke-linecap="round"/>
      
    <path d="M632,700 h128 c12,0 22,-10 22,-22 v-10 c0,-22 16,-40 36,-48 h20 c20,8 36,26 36,48 v10 c0,12 10,22 22,22 h128 v40 h-216 z" fill="url(#darkBody)" stroke="#15191f" stroke-width="5"/>
    <circle cx="696.0" cy="710" r="16" fill="#fff" stroke="#111418" stroke-width="8"/>
    
      <path d="M668,740 v82" stroke="#242930" stroke-width="18" stroke-linecap="round"/>
      <path d="M724,740 v82" stroke="#242930" stroke-width="18" stroke-linecap="round"/>
      
    <g transform="translate(668,822) scale(1.55)">
      <rect x="-22" y="0" width="44" height="52" rx="9" fill="#20252c"/>
      <polygon points="-14,10 14,10 24,26 14,42 -14,42 -24,26" fill="#1c2026"/>
      <rect x="-24" y="52" width="48" height="58" rx="11" fill="#2d3239"/>
      <rect x="-16" y="62" width="6" height="38" rx="3" fill="#1a1e23"/>
      <rect x="-3" y="62" width="6" height="38" rx="3" fill="#1a1e23"/>
      <rect x="10" y="62" width="6" height="38" rx="3" fill="#1a1e23"/>
      <rect x="-18" y="110" width="36" height="104" rx="4" fill="#2a2f36"/>
      <path d="M-18,124 h-10 v20 h10 M18,124 h10 v20 h-10 M-18,180 h-10 v20 h10 M18,180 h10 v20 h-10" fill="#20252b"/>
    </g>
    
      
    <g transform="translate(724,822) scale(1.55)">
      <rect x="-22" y="0" width="44" height="52" rx="9" fill="#20252c"/>
      <polygon points="-14,10 14,10 24,26 14,42 -14,42 -24,26" fill="#1c2026"/>
      <rect x="-24" y="52" width="48" height="58" rx="11" fill="#2d3239"/>
      <rect x="-16" y="62" width="6" height="38" rx="3" fill="#1a1e23"/>
      <rect x="-3" y="62" width="6" height="38" rx="3" fill="#1a1e23"/>
      <rect x="10" y="62" width="6" height="38" rx="3" fill="#1a1e23"/>
      <rect x="-18" y="110" width="36" height="104" rx="4" fill="#2a2f36"/>
      <path d="M-18,124 h-10 v20 h10 M18,124 h10 v20 h-10 M-18,180 h-10 v20 h10 M18,180 h10 v20 h-10" fill="#20252b"/>
    </g>
    
    </g>
    </g>
</svg>