<svg xmlns="http://www.w3.org/2000/svg" width="568" height="698" viewBox="228 150 568 698" role="img" aria-label="pv_disconnect">
  <defs>
    <linearGradient id="metal" x1="0" y1="0" x2="0" y2="1">
      <stop offset="0%" stop-color="#f5f5f5"/>
      <stop offset="55%" stop-color="#d8d8d8"/>
      <stop offset="100%" stop-color="#c5c5c5"/>
    </linearGradient>
    <linearGradient id="metalDark" x1="0" y1="0" x2="0" y2="1">
      <stop offset="0%" stop-color="#efefef"/>
      <stop offset="100%" stop-color="#b7b7b7"/>
    </linearGradient>
    <linearGradient id="darkBody" x1="0" y1="0" x2="1" y2="1">
      <stop offset="0%" stop-color="#4a5059"/>
      <stop offset="45%" stop-color="#2f343b"/>
      <stop offset="100%" stop-color="#171b21"/>
    </linearGradient>
    <linearGradient id="darkBody2" x1="0" y1="0" x2="1" y2="1">
      <stop offset="0%" stop-color="#59616c"/>
      <stop offset="100%" stop-color="#1d2229"/>
    </linearGradient>
    <linearGradient id="creamBody" x1="0" y1="0" x2="1" y2="1">
      <stop offset="0%" stop-color="#f0ece2"/>
      <stop offset="100%" stop-color="#d8d1c4"/>
    </linearGradient>
    <linearGradient id="glass" x1="0" y1="0" x2="0" y2="1">
      <stop offset="0%" stop-color="#cfd3d8" stop-opacity="0.75"/>
      <stop offset="100%" stop-color="#666b72" stop-opacity="0.55"/>
    </linearGradient>
    <linearGradient id="redGrad" x1="0" y1="0" x2="1" y2="1">
      <stop offset="0%" stop-color="#ff4b44"/>
      <stop offset="100%" stop-color="#be0f15"/>
    </linearGradient>
    <linearGradient id="redGrad2" x1="0" y1="0" x2="0" y2="1">
      <stop offset="0%" stop-color="#f33924"/>
      <stop offset="100%" stop-color="#b9110d"/>
    </linearGradient>
    <linearGradient id="yellowGrad" x1="0" y1="0" x2="0" y2="1">
      <stop offset="0%" stop-color="#ffd922"/>
      <stop offset="100%" stop-color="#f2bd00"/>
    </linearGradient>
    <filter id="shadow" x="-20%" y="-20%" width="140%" height="140%">
      <feDropShadow dx="0" dy="8" stdDeviation="10" flood-color="#000000" flood-opacity="0.18"/>
    </filter>
  </defs>
  <g filter="url(#shadow)">
    <rect x="242" y="164" width="540" height="576" rx="42" fill="#d8d8d8" stroke="#8f8f8f" stroke-width="6"/>
    <rect x="266" y="188" width="492" height="528" rx="36" fill="none" stroke="#ffffff" stroke-opacity="0.4" stroke-width="4"/>
    <rect x="324" y="250" width="376" height="376" rx="20" fill="none" stroke="#b3b3b3" stroke-width="6"/>
    <circle cx="308" cy="236" r="26" fill="#4f545a" stroke="#b8b8b8" stroke-width="5"/>
    <circle cx="716" cy="236" r="26" fill="#4f545a" stroke="#b8b8b8" stroke-width="5"/>
    <circle cx="308" cy="676" r="26" fill="#4f545a" stroke="#b8b8b8" stroke-width="5"/>
    <circle cx="716" cy="676" r="26" fill="#4f545a" stroke="#b8b8b8" stroke-width="5"/>
    <rect x="420" y="320" width="184" height="184" rx="14" fill="url(#yellowGrad)" stroke="#d3a400" stroke-width="4"/>
    <circle cx="512" cy="412" r="122" fill="url(#yellowGrad)" opacity="0.8"/>
    <circle cx="512" cy="412" r="112" fill="url(#redGrad2)" stroke="#9d1512" stroke-width="5"/>
    <circle cx="512" cy="412" r="88" fill="#d31714" stroke="#aa130f" stroke-width="5"/>
    <rect x="420" y="382" width="246" height="60" rx="10" fill="#f2331f" stroke="#c31d12" stroke-width="4"/>
    <path d="M494,382 h80 l30,30 l-30,30 h-80 l-22,-30z" fill="#f34a2e" stroke="#c61d11" stroke-width="4"/>
    <rect x="500" y="396" width="56" height="24" rx="12" fill="#ffd426"/>
    <g fill="#1b1f24">
      <rect x="432" y="740" width="78" height="94" rx="14"/>
      <rect x="514" y="740" width="78" height="94" rx="14"/>
      <rect x="440" y="718" width="62" height="34" rx="8"/>
      <rect x="522" y="718" width="62" height="34" rx="8"/>
    </g>
    </g>
</svg>