<svg xmlns="http://www.w3.org/2000/svg" width="1500" height="900" viewBox="0 0 1500 900" role="img" aria-label="Victron Lynx Power In simplified product asset">
  <defs>
    <linearGradient id="victronBlue" x1="0" y1="0" x2="1" y2="1">
      <stop offset="0%" stop-color="#21a3dc"/>
      <stop offset="55%" stop-color="#128fc8"/>
      <stop offset="100%" stop-color="#0878b0"/>
    </linearGradient>
    <linearGradient id="victronBlueDark" x1="0" y1="0" x2="0" y2="1">
      <stop offset="0%" stop-color="#1495cf"/>
      <stop offset="100%" stop-color="#06699d"/>
    </linearGradient>
    <linearGradient id="sideCap" x1="0" y1="0" x2="1" y2="1">
      <stop offset="0%" stop-color="#2bb2e8"/>
      <stop offset="100%" stop-color="#0879b2"/>
    </linearGradient>
    <linearGradient id="orange" x1="0" y1="0" x2="0" y2="1">
      <stop offset="0%" stop-color="#ff8c22"/>
      <stop offset="100%" stop-color="#e65c00"/>
    </linearGradient>
    <linearGradient id="blackPort" x1="0" y1="0" x2="1" y2="1">
      <stop offset="0%" stop-color="#3a3f46"/>
      <stop offset="100%" stop-color="#111418"/>
    </linearGradient>
    <linearGradient id="redPort" x1="0" y1="0" x2="1" y2="1">
      <stop offset="0%" stop-color="#e35144"/>
      <stop offset="100%" stop-color="#aa1d1a"/>
    </linearGradient>
    <linearGradient id="screw" x1="0" y1="0" x2="1" y2="1">
      <stop offset="0%" stop-color="#7d878f"/>
      <stop offset="100%" stop-color="#343b42"/>
    </linearGradient>
    <filter id="shadow" x="-20%" y="-20%" width="140%" height="140%">
      <feDropShadow dx="0" dy="8" stdDeviation="12" flood-color="#000" flood-opacity="0.18"/>
    </filter>
  </defs>

  <g filter="url(#shadow)">
    <rect x="44" y="124" width="124" height="176" rx="14" fill="url(#redPort)" stroke="#8f1b19" stroke-width="4"/>
    <circle cx="98" cy="214" r="28" fill="#bf342c" opacity="0.55"/>
    <rect x="42" y="566" width="128" height="178" rx="14" fill="url(#blackPort)" stroke="#0a0c0f" stroke-width="4"/>
    <circle cx="104" cy="654" r="28" fill="#1e2329" opacity="0.9"/>

    <rect x="152" y="72" width="1196" height="708" rx="38" fill="url(#victronBlue)" stroke="#0572a8" stroke-width="5"/>

    <path d="M152 74 h126 q-34 44-34 126 v452 q0 80 34 126 h-126 q-52 0-52-52 v-600 q0-52 52-52z" fill="url(#sideCap)" stroke="#0877b0" stroke-width="4"/>
    <path d="M1224 74 h124 q52 0 52 52 v600 q0 52-52 52 h-124 q34-46 34-126 v-452 q0-82-34-126z" fill="url(#sideCap)" stroke="#0877b0" stroke-width="4"/>

    <path d="M224 92 h1026 q18 0 26 16 l18 36 h-1088 l18-36 q8-16 26-16z" fill="#1ca1d9" opacity="0.60"/>
    <rect x="256" y="210" width="1020" height="18" rx="9" fill="#23aae2" opacity="0.65"/>
    <path d="M230 112 h1040" stroke="#77cef1" stroke-opacity="0.35" stroke-width="5"/>

    <rect x="322" y="350" width="1000" height="42" rx="2" fill="url(#orange)"/>
    <path d="M328 356 h988" stroke="#ffb36a" stroke-opacity="0.35" stroke-width="4"/>

    <g>
      <circle cx="424" cy="438" r="18" fill="url(#screw)" stroke="#535b62" stroke-width="4"/>
      <circle cx="588" cy="438" r="18" fill="url(#screw)" stroke="#535b62" stroke-width="4"/>
      <circle cx="820" cy="438" r="18" fill="url(#screw)" stroke="#535b62" stroke-width="4"/>
      <circle cx="1066" cy="438" r="18" fill="url(#screw)" stroke="#535b62" stroke-width="4"/>
      <circle cx="1232" cy="438" r="18" fill="url(#screw)" stroke="#535b62" stroke-width="4"/>
    </g>

    <polygon points="324,438 350,408 350,468" fill="#eaf7fb"/>
    <polygon points="1322,438 1296,408 1296,468" fill="#eaf7fb"/>
    <rect x="354" y="474" width="940" height="4" rx="2" fill="#e7f7fb" opacity="0.86"/>

    <g fill="#eef9fc" opacity="0.94">
      <path d="M356 218 q-20-22 0-42 q18-18 36 0 q18-18 36 0 q20 20 0 42 q-18 22-36 0 q-18 22-36 0z"/>
      <rect x="452" y="188" width="164" height="18" rx="9"/>
      <rect x="452" y="220" width="104" height="8" rx="4" opacity="0.85"/>
    </g>

    <g fill="#f2fbff" opacity="0.96">
      <rect x="356" y="498" width="250" height="34" rx="9"/>
      <rect x="356" y="552" width="150" height="60" rx="12"/>
      <rect x="356" y="640" width="930" height="5" rx="2"/>
      <rect x="368" y="666" width="44" height="18" rx="6" opacity="0.85"/>
      <rect x="1242" y="666" width="34" height="18" rx="6" opacity="0.85"/>
    </g>

    <circle cx="216" cy="438" r="28" fill="#00649a" opacity="0.85"/>
    <circle cx="216" cy="438" r="16" fill="#10161a"/>
    <circle cx="1336" cy="438" r="28" fill="#00649a" opacity="0.85"/>
    <circle cx="1336" cy="438" r="16" fill="#10161a"/>

    <path d="M422 778 h288 q22 0 34 18 q12 18 12 48 v26 q0 20-20 20 h-288 q-20 0-20-20 v-26 q0-30-18-48 q-12-18 12-18z" fill="url(#victronBlueDark)"/>
    <path d="M902 778 h288 q22 0 34 18 q12 18 12 48 v26 q0 20-20 20 h-288 q-20 0-20-20 v-26 q0-30-18-48 q-12-18 12-18z" fill="url(#victronBlueDark)"/>
    <rect x="760" y="778" width="96" height="88" rx="16" fill="#0a7db6" opacity="0.92"/>
    <path d="M760 820 h96" stroke="#55c1ed" stroke-opacity="0.28" stroke-width="4"/>

    <path d="M188 96 q28 26 28 104 v446 q0 76-28 108" stroke="#79d3f3" stroke-width="5" stroke-opacity="0.24" fill="none"/>
    <path d="M1308 96 q-28 26-28 104 v446 q0 76 28 108" stroke="#79d3f3" stroke-width="5" stroke-opacity="0.24" fill="none"/>
  </g>
</svg>